<?xml version="1.0" encoding="utf-8"?>
<!-- Generator: Adobe Illustrator 16.0.4, SVG Export Plug-In . SVG Version: 6.00 Build 0)  -->
<!DOCTYPE svg PUBLIC "-//W3C//DTD SVG 1.1//EN" "http://www.w3.org/Graphics/SVG/1.1/DTD/svg11.dtd">
<svg version="1.1" id="Layer_1" xmlns="http://www.w3.org/2000/svg" xmlns:xlink="http://www.w3.org/1999/xlink" x="0px" y="0px"
	 width="30px" height="30px" viewBox="0 0 30 30" enable-background="new 0 0 30 30" xml:space="preserve">
<path opacity="0.8" fill="#888888" d="M23,0H7C3.15,0,0,3.15,0,7v16c0,3.85,3.15,7,7,7h16c3.85,0,7-3.15,7-7V7C30,3.15,26.85,0,23,0
	L23,0z"/>
<path fill="#FFFFFF" d="M23,4c1.654,0,3,1.346,3,3v16c0,1.654-1.346,3-3,3H7c-1.654,0-3-1.346-3-3V7c0-1.654,1.346-3,3-3H23"/>
<path fill="#888888" d="M19.5,8.5h-6.854c-1.104,0-2,0.896-2,2s0.896,2,2,2h2.026l-5.586,5.586c-0.781,0.781-0.781,2.047,0,2.828
	C9.476,21.305,9.988,21.5,10.5,21.5s1.024-0.195,1.414-0.586l5.586-5.585v2.025c0,1.104,0.896,2,2,2s2-0.896,2-2V10.5
	C21.5,9.396,20.604,8.5,19.5,8.5z"/>
</svg>
