<?xml version="1.0" encoding="utf-8"?>
<!-- Generator: Adobe Illustrator 16.0.4, SVG Export Plug-In . SVG Version: 6.00 Build 0)  -->
<!DOCTYPE svg PUBLIC "-//W3C//DTD SVG 1.1//EN" "http://www.w3.org/Graphics/SVG/1.1/DTD/svg11.dtd">
<svg version="1.1" id="Layer_1" xmlns="http://www.w3.org/2000/svg" xmlns:xlink="http://www.w3.org/1999/xlink" x="0px" y="0px"
	 width="30px" height="30px" viewBox="0 0 30 30" enable-background="new 0 0 30 30" xml:space="preserve">
<path opacity="0.8" fill="#888888" d="M7,30h16c3.85,0,7-3.15,7-7V7c0-3.85-3.15-7-7-7H7C3.15,0,0,3.15,0,7v16
	C0,26.851,3.15,30,7,30L7,30z"/>
<path fill="#FFFFFF" d="M7,26c-1.654,0-3-1.346-3-3V7c0-1.654,1.346-3,3-3h16c1.653,0,3,1.346,3,3v16c0,1.654-1.346,3-3,3H7"/>
<path fill="#888888" d="M10.5,21.5h6.854c1.105,0,2-0.896,2-2s-0.895-2-2-2h-2.026l5.586-5.586c0.781-0.781,0.781-2.047,0-2.828
	C20.523,8.695,20.012,8.5,19.5,8.5s-1.024,0.195-1.414,0.586L12.5,14.671v-2.025c0-1.104-0.896-2-2-2s-2,0.896-2,2V19.5
	C8.5,20.604,9.396,21.5,10.5,21.5z"/>
</svg>
