<?xml version="1.0" encoding="utf-8"?>
<!-- Generator: Adobe Illustrator 16.0.4, SVG Export Plug-In . SVG Version: 6.00 Build 0)  -->
<!DOCTYPE svg PUBLIC "-//W3C//DTD SVG 1.1//EN" "http://www.w3.org/Graphics/SVG/1.1/DTD/svg11.dtd">
<svg version="1.1" id="Layer_1" xmlns="http://www.w3.org/2000/svg" xmlns:xlink="http://www.w3.org/1999/xlink" x="0px" y="0px"
	 width="120.24px" height="60px" viewBox="0 0 120.24 60" enable-background="new 0 0 120.24 60" xml:space="preserve">
<circle fill="none" stroke="#555555" stroke-miterlimit="10" cx="40.635" cy="56.693" r="0.937"/>
<path fill="none" stroke="#555555" stroke-miterlimit="10" d="M25.913,42.883c0,8.129,6.596,14.725,14.725,14.725
	c8.127,0,14.725-6.596,14.725-14.725c0-8.127-6.598-14.725-14.725-14.725C32.509,28.159,25.913,34.756,25.913,42.883z"/>
<path fill="none" stroke="#555555" stroke-miterlimit="10" d="M19.835,36.816c0,11.479,9.32,20.801,20.804,20.801
	c11.48,0,20.803-9.319,20.803-20.801c0-11.482-9.321-20.802-20.803-20.802C29.155,16.014,19.835,25.334,19.835,36.816z"/>
<text transform="matrix(1 0 0 1 31.3093 7.0049)" class="vis-title">Area</text>
<text transform="matrix(1 0 0 1 76.8982 18.4614)" class="vis-label">$55.5M</text>
<text transform="matrix(1 0 0 1 76.8982 29.9995)" class="vis-label">$27.8M</text>
<text transform="matrix(1 0 0 1 76.8982 57.6055)" class="vis-label">$4.0M</text>
<line fill="none" stroke="#555555" stroke-width="0.5" stroke-miterlimit="10" x1="40.638" y1="16.014" x2="73.627" y2="16.014"/>
<line fill="none" stroke="#555555" stroke-width="0.5" stroke-miterlimit="10" x1="40.638" y1="28.158" x2="73.627" y2="28.158"/>
<line fill="none" stroke="#555555" stroke-width="0.5" stroke-miterlimit="10" x1="40.638" y1="55.756" x2="73.627" y2="55.756"/>
</svg>
