<?xml version="1.0" encoding="utf-8"?>
<!-- Generator: Adobe Illustrator 16.0.4, SVG Export Plug-In . SVG Version: 6.00 Build 0)  -->
<!DOCTYPE svg PUBLIC "-//W3C//DTD SVG 1.1//EN" "http://www.w3.org/Graphics/SVG/1.1/DTD/svg11.dtd">
<svg version="1.1" id="Layer_1" xmlns="http://www.w3.org/2000/svg" xmlns:xlink="http://www.w3.org/1999/xlink" x="0px" y="0px"
	 width="268.5px" height="140px" viewBox="0 0 268.5 140" enable-background="new 0 0 268.5 140" xml:space="preserve">
<rect x="2.298" y="24.979" fill="#CC3466" width="19.23" height="19.23"/>
<rect x="2.298" y="48.568" fill="#3499CD" width="19.23" height="19.23"/>
<rect x="2.298" y="72.158" fill="#009290" width="19.23" height="19.23"/>
<rect x="2.298" y="95.749" fill="#8D84BE" width="19.23" height="19.229"/>
<rect x="2.298" y="119.339" fill="#359A47" width="19.23" height="19.23"/>
<rect x="2.298" y="1.389" fill="#F06797" width="19.23" height="19.23"/>
<rect x="150.658" y="24.978" fill="#EF3E3A" width="19.23" height="19.23"/>
<rect x="150.658" y="48.568" fill="#E14B9B" width="19.23" height="19.23"/>
<rect x="150.658" y="72.157" fill="#F99E1F" width="19.23" height="19.23"/>
<rect x="150.658" y="95.747" fill="#FFCC68" width="19.23" height="19.229"/>
<rect x="150.658" y="119.338" fill="#A4B2C9" width="19.23" height="19.23"/>
<rect x="150.658" y="1.389" fill="#989936" width="19.23" height="19.23"/>
<text transform="matrix(1 0 0 1 24.2422 8.8071)" enable-background="new    "><tspan x="0" y="0" fill="#565656" font-family="'DroidSans'" font-size="10">Electrical Engineering</tspan><tspan x="0" y="11" fill="#565656" font-family="'DroidSans'" font-size="10">&amp; Computer Science</tspan></text>
<text transform="matrix(1 0 0 1 24.2422 38.5967)" fill="#565656" font-family="'DroidSans'" font-size="10">Math &amp; Physics</text>
<text transform="matrix(1 0 0 1 24.2422 56.0928)" enable-background="new    "><tspan x="0" y="0" fill="#565656" font-family="'DroidSans'" font-size="10">Chemical, Mechanical</tspan><tspan x="0" y="11" fill="#565656" font-family="'DroidSans'" font-size="10">&amp; Civil Engineering</tspan></text>
<text transform="matrix(1 0 0 1 24.2422 85.5986)" fill="#565656" font-family="'DroidSans'" font-size="10">Chemistry</text>
<text transform="matrix(1 0 0 1 24.2422 109.0986)" fill="#565656" font-family="'DroidSans'" font-size="10">Earth Sciences</text>
<text transform="matrix(1 0 0 1 24.2422 132.5996)" fill="#565656" font-family="'DroidSans'" font-size="10">Biology</text>
<text transform="matrix(1 0 0 1 173.1846 14.812)" fill="#565656" font-family="'DroidSans'" font-size="10">Biotechnology</text>
<text transform="matrix(1 0 0 1 173.1846 38.5967)" fill="#565656" font-family="'DroidSans'" font-size="10">Infectious Diseases</text>
<text transform="matrix(1 0 0 1 173.1846 62.0977)" fill="#565656" font-family="'DroidSans'" font-size="10">Medical Specialties</text>
<text transform="matrix(1 0 0 1 173.1846 85.5986)" fill="#565656" font-family="'DroidSans'" font-size="10">Health Professionals</text>
<text transform="matrix(1 0 0 1 173.1846 109.0986)" fill="#565656" font-family="'DroidSans'" font-size="10">Humanities</text>
<text transform="matrix(1 0 0 1 173.1846 132.5996)" fill="#565656" font-family="'DroidSans'" font-size="10">Social Sciences</text>
</svg>
